<?xml version="1.0" encoding="utf-8" ?><svg xmlns="http://www.w3.org/2000/svg" xmlns:xlink="http://www.w3.org/1999/xlink" width="1024" height="1024" viewBox="0 0 1024 1024"><path fill="#0E1024" d="M0 0L1024 0L1024 1024L0 1024L0 0Z"/><path fill="#D4F542" d="M784.395 299.226L512.147 160.024C421.726 207.317 330.879 253.79 239.616 299.438C238.847 302.869 238.981 317.767 239.051 325.5C239.064 326.97 239.075 328.182 239.077 329.006L239.231 394.289L239.153 648.953L239.252 730.96C239.253 732.071 239.236 734.128 239.214 736.778C239.111 749.123 238.901 774.318 239.889 776.473L241.933 777.439L284.798 796.666C291.925 799.856 303.945 804.872 310.232 808.5C313.79 810.539 317.051 813.056 319.923 815.982C334.625 830.734 336.014 844.377 336.043 863.825L687.841 863.83C687.837 862.901 687.83 861.977 687.822 861.056C687.755 853.033 687.691 845.315 690.206 837.557C697.388 815.404 713.672 808.661 732.919 799.725C749.527 792.015 767.834 784.846 783.949 776.476C784.983 774.774 784.798 728.212 784.714 707C784.697 702.749 784.684 699.515 784.686 697.866L784.754 539.495L784.892 490.714C784.894 489.267 784.913 487.513 784.933 485.597C785.003 479.063 785.092 470.642 784.602 466.06L784.626 465.191C785.357 451.391 785.062 300.733 784.395 299.226Z"/><path fill="#4FD1E8" d="M572.031 526.782C552.079 517.811 532.62 508.722 512.508 499.952L511.494 500.075L318.92 587.049C292.835 598.563 266.86 610.325 241 622.335L241.118 623.169C239.705 626.388 240.449 760.363 240.535 775.804L240.536 775.941L239.889 776.473L241.933 777.439L284.798 796.666C291.925 799.856 303.945 804.872 310.232 808.5C313.79 810.539 317.051 813.056 319.923 815.982C334.625 830.734 336.014 844.377 336.043 863.825L687.841 863.83C687.837 862.901 687.83 861.977 687.822 861.056C687.755 853.033 687.691 845.315 690.206 837.557C697.388 815.404 713.672 808.661 732.919 799.725C749.527 792.015 767.834 784.846 783.949 776.476L783.44 775.701L783.784 664.652C783.815 661.839 783.781 657.77 783.742 653.225C783.651 642.428 783.536 628.939 784.224 623.196L784.054 622.202C773.067 617.869 762.154 612.466 751.38 607.524L706.53 587.342L572.031 526.782Z"/><path fill="#FF5D8F" d="M783.949 776.476L783.44 775.701C764.456 776.164 744.792 776.104 725.355 776.044C716.981 776.019 708.649 775.993 700.432 776.01L520.662 775.898C517.784 776.065 515.354 775.991 512.662 775.909C512.159 775.894 511.647 775.878 511.122 775.864C445.995 776.601 379.877 776.384 314.185 776.168C290.249 776.09 266.37 776.011 242.615 775.979L240.536 775.941L239.889 776.473L241.933 777.439L284.798 796.666C291.925 799.856 303.945 804.872 310.232 808.5C313.79 810.539 317.051 813.056 319.923 815.982C334.625 830.734 336.014 844.377 336.043 863.825L687.841 863.83C687.837 862.901 687.83 861.977 687.822 861.056C687.755 853.033 687.691 845.315 690.206 837.557C697.388 815.404 713.672 808.661 732.919 799.725C749.527 792.015 767.834 784.846 783.949 776.476Z"/><path fill="#0E1024" d="M240.535 775.804L240.536 775.941L242.615 775.979C266.37 776.011 290.249 776.09 314.185 776.168C379.877 776.384 445.995 776.601 511.122 775.864C511.345 772.533 511.222 767.045 511.097 761.435C510.941 754.392 510.779 747.158 511.291 743.757C502.763 739.51 490.945 734.803 481.896 730.835L431.508 708.44L300.379 649.65C280.691 640.8 260.668 632.326 241.118 623.169C239.705 626.388 240.449 760.363 240.535 775.804Z"/><path fill="#0E1024" d="M783.742 653.225C783.651 642.428 783.536 628.939 784.224 623.196L604.949 702.97L556.34 724.884C543.718 730.671 525.426 739.197 512.487 743.934L511.291 743.757C510.779 747.158 510.941 754.392 511.097 761.435C511.222 767.045 511.345 772.533 511.122 775.864C511.647 775.878 512.159 775.894 512.662 775.909C515.354 775.991 517.784 776.065 520.662 775.898L700.432 776.01C708.649 775.993 716.981 776.019 725.355 776.044C744.792 776.104 764.456 776.164 783.44 775.701L783.784 664.652C783.815 661.839 783.781 657.77 783.742 653.225Z"/><path fill="#73536E" d="M512.487 743.934L511.291 743.757C510.779 747.158 510.941 754.392 511.097 761.435C511.222 767.045 511.345 772.533 511.122 775.864C511.647 775.878 512.159 775.894 512.662 775.909C515.354 775.991 517.784 776.065 520.662 775.898C518.353 775.672 516.432 775.701 514.301 775.733C513.716 775.742 513.115 775.751 512.486 775.755C512.487 772.295 512.503 768.804 512.52 765.304C512.554 758.159 512.588 750.974 512.487 743.934Z"/><path fill="#0E1024" d="M264.086 466.484C256.143 466.565 247.986 466.648 240.464 466.418L240.513 578.928C240.513 580.125 240.49 582.358 240.459 585.205C240.334 597.082 240.095 619.653 241 622.335C266.86 610.325 292.835 598.563 318.92 587.049L511.494 500.075C511.262 493.045 511.265 486.133 511.268 479.204C511.27 474.987 511.272 470.764 511.221 466.504L332.449 466.338L273.924 466.407C270.725 466.417 267.424 466.45 264.086 466.484Z"/><path fill="#0E1024" d="M783.836 466.501L512.48 466.489L512.508 499.952C532.62 508.722 552.079 517.811 572.031 526.782L706.53 587.342L751.38 607.524C762.154 612.466 773.067 617.869 784.054 622.202C783.368 619.609 783.537 598.48 783.628 587.109C783.649 584.462 783.666 582.344 783.667 581.112L783.836 466.501Z"/><path fill="#0E1024" d="M784.626 465.191C785.357 451.391 785.062 300.733 784.395 299.226L783.584 300.026C774.798 303.286 755.834 313.763 746.593 318.497C737.439 323.187 715.784 333.561 708.873 339.111C702.261 344.531 696.968 351.385 693.398 359.154C687.166 372.819 686.696 388.416 692.093 402.431C701.859 428.225 724.626 433.857 746.993 446.087C758.203 452.217 771.913 459.594 783.456 464.51L784.626 465.191Z"/><path fill="#73536E" d="M784.626 465.191C785.357 451.391 785.062 300.733 784.395 299.226L783.584 300.026C783.747 316.194 783.68 332.491 783.613 348.756C783.579 357.285 783.544 365.805 783.542 374.293L783.456 464.51L784.626 465.191Z"/><path fill="#0E1024" d="M281.022 320.651C268.623 314.335 253.07 305.186 240.486 300.168L240.529 417.419L240.454 449.295C240.453 449.682 240.449 450.203 240.445 450.823C240.417 454.893 240.36 463.202 240.76 465.381C252.186 460.007 266.165 452.214 277.603 446.334C287.14 441.431 309.235 430.607 316.428 424.565C323.003 419.055 328.152 412.041 331.44 404.118C337.231 389.774 337.024 373.705 330.867 359.514C327.511 351.788 322.34 344.985 315.794 339.684C308.309 333.637 290.351 325.404 281.022 320.651Z"/><path fill="#73536E" d="M240.486 300.168L239.616 299.438C238.847 302.869 238.981 317.767 239.051 325.5C239.064 326.97 239.075 328.182 239.077 329.006L239.231 394.289L239.153 648.953L239.252 730.96C239.253 732.071 239.236 734.128 239.214 736.778C239.111 749.123 238.901 774.318 239.889 776.473L240.536 775.941L240.535 775.804C240.449 760.363 239.705 626.388 241.118 623.169L241 622.335C240.095 619.653 240.334 597.082 240.459 585.205C240.49 582.358 240.513 580.125 240.513 578.928L240.464 466.418C247.986 466.648 256.143 466.565 264.086 466.484C267.424 466.45 270.725 466.417 273.924 466.407L332.449 466.338L511.221 466.504C511.272 470.764 511.27 474.987 511.268 479.204C511.265 486.133 511.262 493.045 511.494 500.075L512.508 499.952L512.48 466.489L783.836 466.501L783.667 581.112C783.666 582.344 783.649 584.462 783.628 587.109C783.537 598.48 783.368 619.609 784.054 622.202L784.224 623.196C783.536 628.939 783.651 642.428 783.742 653.225C783.781 657.77 783.815 661.839 783.784 664.652L783.44 775.701L783.949 776.476C784.983 774.774 784.798 728.212 784.714 707C784.697 702.749 784.684 699.515 784.686 697.866L784.754 539.495L784.892 490.714C784.894 489.267 784.913 487.513 784.933 485.597C785.003 479.063 785.092 470.642 784.602 466.06C776.186 466.311 766.679 466.213 757.488 466.12C752.886 466.073 748.363 466.026 744.096 466.025L662.23 466.019L413.841 466.023L293.304 466.025L259.29 466.087C258.476 466.09 257.397 466.104 256.162 466.121C251.239 466.185 243.845 466.281 240.985 465.863L240.76 465.381C240.36 463.202 240.417 454.893 240.445 450.823C240.449 450.203 240.453 449.682 240.454 449.295L240.529 417.419L240.486 300.168Z"/></svg>